<svg xmlns="http://www.w3.org/2000/svg" viewBox="0 0 800 500">
<rect width="800" height="500" fill="#050505"/>
<defs>
<marker id="blue" markerWidth="10" markerHeight="10" refX="8" refY="3" orient="auto"><path d="M0,0 L0,6 L9,3 z" fill="#38bdf8"/></marker>
</defs>
<rect x="250" y="330" width="320" height="48" rx="24" fill="#78350f" stroke="#fff" stroke-width="6" transform="rotate(-8 410 355)"/>
<rect x="245" y="355" width="320" height="48" rx="24" fill="#92400e" stroke="#fff" stroke-width="6" transform="rotate(8 405 380)"/>
<path d="M400 110 C320 215 370 295 400 295 C438 295 500 220 400 110Z" fill="#fb923c" stroke="#fff" stroke-width="7"/>
<path d="M400 170 C365 230 385 265 405 265 C428 265 455 230 400 170Z" fill="#fed7aa"/>
<path d="M315 185 C220 160 175 115 120 70" stroke="#38bdf8" stroke-width="12" fill="none" marker-end="url(#blue)"/>
<path d="M485 185 C580 160 625 115 680 70" stroke="#38bdf8" stroke-width="12" fill="none" marker-end="url(#blue)"/>
<path d="M400 105 C400 60 400 45 400 20" stroke="#38bdf8" stroke-width="12" fill="none" marker-end="url(#blue)"/>
<path d="M310 290 C250 330 215 360 155 390" stroke="#38bdf8" stroke-width="12" fill="none" marker-end="url(#blue)"/>
<path d="M490 290 C550 330 585 360 645 390" stroke="#38bdf8" stroke-width="12" fill="none" marker-end="url(#blue)"/>
<text x="400" y="455" fill="#fff" font-size="38" font-family="Arial" text-anchor="middle" font-weight="bold">MADEIRA LIBERA CALOR</text>
</svg>